<?xml version="1.0" encoding="utf-8"?>
<!-- Generator: Adobe Illustrator 16.0.4, SVG Export Plug-In . SVG Version: 6.00 Build 0)  -->
<!DOCTYPE svg PUBLIC "-//W3C//DTD SVG 1.0//EN" "http://www.w3.org/TR/2001/REC-SVG-20010904/DTD/svg10.dtd">
<svg version="1.0" id="レイヤー_1" xmlns="http://www.w3.org/2000/svg" xmlns:xlink="http://www.w3.org/1999/xlink" x="0px"
	 y="0px" width="233.5px" height="98px" viewBox="0 0 233.5 98" style="enable-background:new 0 0 233.5 98;" xml:space="preserve">
<style type="text/css">
<![CDATA[
	.st0{fill:#4D1F03;}
	.st1{fill:none;stroke:#FFFFFF;stroke-width:0.2555;stroke-miterlimit:10;}
	.st2{fill:#ECD5BB;stroke:#4D1F03;stroke-width:0.4044;stroke-linecap:round;stroke-linejoin:round;stroke-miterlimit:10;}
	.st3{fill:#ECD5BB;}
	.st4{fill:#ECD5BB;stroke:#4D1F03;stroke-width:0.5109;stroke-linecap:round;stroke-linejoin:round;stroke-miterlimit:10;}
	.st5{fill:#CE8C8C;}
	.st6{fill:#ECD5BB;stroke:#4D1F03;stroke-width:0.64;stroke-miterlimit:10;}
	.st7{fill:#A5292A;}
]]>
</style>
<path class="st7" d="M2.63,61.21c7.45,0.41,15.24,2.65,15.24,2.65s-7.38,5.56-13.44,14.93c20.08-11.65,26.4-8.82,40.92-7.99
	c9.56,0.54,29.28-1.42,15.76-11.78C53.09,59.34,24.16,51.77,2.63,61.21z"/>
<path class="st5" d="M37.75,38.58c0,0,2.22,1.34-0.28,5.1c-7.85,11.78-7.07,19.11,0.51,18.23c7.59-0.88,23.63-3.41,26.84,0.76
	c-1.7-9.1-3.57-14.19-5.19-24.64C59.64,38.03,41.81,31.07,37.75,38.58z"/>
<path class="st7" d="M230.55,79.45c-4.73-4.95-10.45-6.69-10.45-6.69s3.69,5.76,3.43,10.46c0,0-12.23-16.16-26.64-12.33
	c-10.32,2.74-28.07-6.47-14.27-14.58C194.45,50.45,216.72,58.7,230.55,79.45z"/>
<path class="st5" d="M207.46,49.96c0,0-2.01-0.48-0.16,2.9c6.43,11.8,2.32,17.37-4.91,11.8c-7.23-5.58-20.78-7.11-24.4-3.85
	c3.02-8.19,4.99-14.85,7.82-19.68C185.81,41.13,204.13,44.35,207.46,49.96z"/>
<g>
	<path class="st6" d="M55.12,73.58l62.83,12.85V17.53c0,0-13.53-17.38-56.59-13.4L55.12,73.58z"/>
	<path class="st6" d="M53.47,75.23l62.83,12.84l0.76-70.55c0,0-15.97-13.81-58.19-12.57L53.47,75.23z"/>
	<path class="st6" d="M55.15,73.54l62.83,12.84V19.54c0,0-22-14.63-61.35-13.69L55.15,73.54z"/>
	<path class="st6" d="M51.95,76.75l62.83,12.84V19.68c0,0-23.36-12.27-60.45-13.17L51.95,76.75z"/>
	<path class="st6" d="M51.95,76.75l62.83,14.76V21.6c0,0-26.17-11.79-63.86-14.76L51.95,76.75z"/>
	<path class="st6" d="M50.41,71.64l62.84,14.76l-1.68-65.35c0,0-25.04-8.19-60.65-14.21L50.41,71.64z"/>
	<path class="st6" d="M180.86,73.58l-62.83,12.85V17.53c0,0,13.53-17.38,56.59-13.4L180.86,73.58z"/>
	<path class="st6" d="M182.51,75.23l-62.83,12.84l-0.77-70.55c0,0,15.97-13.81,58.19-12.57L182.51,75.23z"/>
	<path class="st6" d="M180.82,73.54l-62.83,12.84V19.54c0,0,22-14.63,61.36-13.69L180.82,73.54z"/>
	<path class="st6" d="M184.03,76.75L121.19,89.6V19.68c0,0,23.36-12.27,60.45-13.17L184.03,76.75z"/>
	<path class="st6" d="M184.03,76.75l-62.83,14.76V21.6c0,0,26.17-11.79,63.86-14.76L184.03,76.75z"/>
	<path class="st6" d="M185.56,71.64L122.72,86.4l1.67-65.35c0,0,25.04-8.19,60.65-14.21L185.56,71.64z"/>
</g>
<ellipse class="st2" cx="117.95" cy="20.37" rx="12.45" ry="3.86"/>
<g>
	<path class="st4" d="M50.22,76.44L48.21,7.41c0,0,0.48-1.01,2.01-0.88l55.24,12.62c14.01,7.16,24.91,0,24.91,0l55.24-12.62
		c1.36-0.07,2.08,0.88,2.08,0.88l-2.08,69.03l-55.24,12.62v-0.31c0,0-12.46,10.9-24.91,0L50.22,76.44z"/>
</g>
<path class="st0" d="M130.4,90.96c0,0-12.45,10.9-24.91,0V21.05c14.01,7.16,24.91,0,24.91,0V90.96z"/>
<g>
	<path class="st1" d="M130.4,43.12c0,0-12.45,10.9-24.91,0V25.31c14.01,7.16,24.91,0,24.91,0V43.12z"/>
	<path class="st1" d="M117.49,46.51c-3.73,0-7.28-1.37-10.54-4.06V27.59c3.68,1.56,7.45,2.35,11.24,2.35
		c4.78,0,8.55-1.26,10.78-2.25v14.72C127.51,43.51,123.01,46.51,117.49,46.51z"/>
	<path class="st1" d="M117.49,45.06c-3.19,0-6.25-1.11-9.1-3.31V29.7c3.22,1.12,6.5,1.69,9.79,1.69c3.77,0,6.95-0.74,9.33-1.57
		v11.85C125.83,42.83,122,45.06,117.49,45.06z"/>
</g>
<path class="st1" d="M130.4,81.88c0,0-12.45,10.9-24.91,0V70.25c14.01,7.16,24.91,0,24.91,0V81.88z"/>
<path class="st1" d="M117.49,85.28c-3.73,0-7.28-1.37-10.54-4.06v-8.68c3.68,1.56,7.45,2.35,11.24,2.35c4.78,0,8.55-1.26,10.78-2.25
	v8.54C127.51,82.27,123.01,85.28,117.49,85.28z"/>
<path class="st1" d="M117.49,83.83c-3.19,0-6.25-1.12-9.1-3.31v-5.87c3.22,1.12,6.5,1.69,9.79,1.69c3.77,0,6.95-0.74,9.33-1.57v5.67
	C125.83,81.59,122,83.83,117.49,83.83z"/>
<polygon class="st0" points="48.21,77.32 105.5,90.96 105.5,21.05 48.21,7.41 "/>
<polygon class="st1" points="52.55,73.89 52.55,12.91 101.15,24.48 101.15,85.46 "/>
<polygon class="st1" points="54,72.75 54,14.74 99.7,25.62 99.7,83.63 "/>
<polygon class="st1" points="55.45,71.6 55.45,16.58 98.25,26.77 98.25,81.79 "/>
<polygon class="st0" points="187.69,77.32 130.4,90.96 130.4,21.05 187.69,7.41 "/>
<polygon class="st1" points="134.75,24.48 183.35,12.91 183.35,73.89 134.75,85.46 "/>
<polygon class="st1" points="136.2,25.62 181.9,14.74 181.9,72.75 136.2,83.63 "/>
<polygon class="st1" points="137.65,26.77 180.45,16.58 180.45,71.6 137.65,81.79 "/>
<path class="st7" d="M191.32,50.32c-15.13-0.15-30.42,0.54-45.11,4.19c-16.62,4.13-32.32,8.03-48,6.78
	c-5.31-0.42-14.42-3.03-24.05-5.8c-17.3-4.97-30.07-8.3-37.58-7.26c0,0-1.2,0.08-3.12,0.47c-0.49,3.24-1.11,5.34-1.11,5.34
	c4.18-10.21,49.6,9,65.62,10.27c30.65,2.43,62.11-11.26,93.32-10.96c17.9,0.18,19.4,10.02,19.4,10.02s-0.4-2.81-0.83-6.54
	c-1.94-1.91-3.38-3.03-3.38-3.03C203.17,51.86,198.35,50.39,191.32,50.32z"/>
<path class="st3" d="M210.19,35.49c-1.59-1.18-2.67-1.56-2.67-1.56c-12.28-6.59-43.38-4.22-59.59-1.39l-3.35,0.58
	c-17.04,2.93-34.15,10.36-55.86,1.85c-15.01-5.88-20.92-6.63-34.46-8.73c-12.36-1.92-19.68-1.41-22.91-0.34c0,0-0.42,0.97-2.01,1.8
	c0.68,1.66,3.55,3.69,4.52,8.88c0.85,4.5,0.1,8.9-0.39,12.11c1.91-0.38,3.12-0.47,3.12-0.47c7.51-1.05,20.28,2.29,37.58,7.26
	c9.64,2.77,18.74,5.38,24.05,5.8c15.68,1.25,31.83-1.26,48.45-5.39c14.68-3.65,29.53-5.73,44.66-5.58
	c7.03,0.07,11.84,1.55,15.16,3.47c0,0,1.44,1.12,3.38,3.03c-0.49-4.21-1.16-12.67-1.25-16.51
	C208.55,37.51,209.31,36.17,210.19,35.49z"/>
<path class="st7" d="M54.2,27.3c13.55,2.1,27.15,5.66,34.46,8.73c18.76,7.88,38.82,1.08,55.86-1.85l3.35-0.58
	c16.21-2.83,47.31-5.2,59.59,1.39c0,0,1.02,0.43,2.1,1.15c1.52-1.17,2.81-0.93,1.67-2.14c-10.88-11.5-49.05-5.92-67.22-2.8
	c-17.74,3.05-34.44,9.5-53.84,2.21C73.62,27.2,33,17.73,27.84,25.94c-0.34,0.55,0.39,0.69,1.49,1.76c1.59-0.83,1.95-0.75,1.95-0.75
	C34.52,25.89,41.84,25.38,54.2,27.3z"/>
<g>
	<path class="st0" d="M62.67,32.49c-0.49-0.07-0.98-0.09-1.48-0.04c-0.5,0.04-0.96,0.2-1.4,0.48c0.6,0.36,1.09,0.8,1.46,1.31
		c0.37,0.51,0.51,1.14,0.44,1.9c-0.05,0.57-0.25,1.04-0.58,1.4c-0.33,0.36-0.74,0.65-1.2,0.86c-0.47,0.21-0.96,0.36-1.49,0.43
		s-1,0.11-1.44,0.09l0,0.04c1.15,0.13,2.01,0.46,2.58,0.97c0.57,0.51,0.81,1.21,0.73,2.08c-0.06,0.63-0.29,1.2-0.7,1.69
		c-0.4,0.49-0.91,0.9-1.5,1.23c-0.6,0.33-1.26,0.56-1.97,0.71c-0.72,0.15-1.42,0.19-2.12,0.12c-0.27-0.02-0.54-0.08-0.83-0.17
		c-0.29-0.09-0.54-0.22-0.76-0.39c-0.22-0.17-0.4-0.37-0.53-0.62c-0.13-0.24-0.18-0.53-0.15-0.86c0.04-0.43,0.2-0.76,0.49-1
		c0.28-0.23,0.64-0.33,1.07-0.29c0.28,0.03,0.52,0.11,0.72,0.24c0.2,0.13,0.36,0.28,0.46,0.43c-0.23,0.17-0.46,0.38-0.68,0.64
		c-0.22,0.26-0.35,0.55-0.38,0.86c-0.02,0.25,0.04,0.45,0.18,0.6c0.15,0.15,0.35,0.23,0.62,0.26c0.39,0.04,0.79-0.06,1.19-0.28
		c0.4-0.22,0.76-0.52,1.09-0.9c0.33-0.38,0.61-0.81,0.83-1.3c0.23-0.49,0.36-0.98,0.41-1.48c0.05-0.48,0-0.89-0.12-1.22
		s-0.32-0.6-0.57-0.8c-0.25-0.2-0.54-0.34-0.86-0.43C55.87,39,55.53,38.97,55.18,39l0.09-0.16c1.21-0.08,2.18-0.41,2.93-1
		c0.75-0.59,1.17-1.41,1.27-2.46c0.03-0.35,0.01-0.68-0.07-0.99c-0.08-0.31-0.23-0.6-0.46-0.88c-0.83,0.69-1.56,1.46-2.19,2.33
		c-0.63,0.87-1.24,1.74-1.83,2.61c-0.59,0.88-1.18,1.72-1.77,2.53c-0.59,0.81-1.27,1.52-2.02,2.12s-1.62,1.06-2.6,1.37
		c-0.98,0.32-2.15,0.41-3.5,0.28c-0.42-0.04-0.82-0.12-1.19-0.24c-0.38-0.12-0.71-0.28-1-0.49c-0.29-0.21-0.51-0.46-0.66-0.76
		c-0.15-0.3-0.21-0.66-0.17-1.08c0.04-0.37,0.18-0.69,0.44-0.95s0.61-0.38,1.04-0.34c0.37,0.04,0.66,0.16,0.86,0.39
		c0.21,0.22,0.3,0.51,0.26,0.87c-0.05,0.49-0.34,0.81-0.88,0.95c0.01,0.47,0.13,0.82,0.37,1.04c0.24,0.22,0.56,0.35,0.97,0.39
		c0.65,0.06,1.24-0.03,1.78-0.27s1.05-0.59,1.54-1.04c0.48-0.45,0.95-0.98,1.4-1.59c0.45-0.61,0.91-1.25,1.37-1.93
		c0.46-0.68,0.93-1.36,1.42-2.06c0.49-0.69,1.01-1.35,1.58-1.97c0.56-0.62,1.17-1.17,1.82-1.67c0.65-0.49,1.38-0.88,2.17-1.16
		c-0.28-0.17-0.67-0.34-1.18-0.51c-0.51-0.17-1.15-0.3-1.94-0.37c-1.11-0.11-2.19-0.03-3.22,0.22c-1.03,0.25-1.95,0.65-2.75,1.2
		c-0.8,0.54-1.46,1.21-1.97,2c-0.52,0.79-0.82,1.66-0.91,2.62c-0.03,0.32-0.02,0.62,0.04,0.9c0.06,0.29,0.15,0.54,0.29,0.77
		c0.14,0.22,0.33,0.41,0.57,0.55c0.24,0.14,0.53,0.23,0.88,0.27c0.47,0.04,0.89-0.05,1.25-0.28c0.37-0.23,0.68-0.54,0.95-0.92
		c0.27-0.38,0.48-0.8,0.64-1.26c0.16-0.46,0.26-0.9,0.3-1.32c0.03-0.37,0.01-0.77-0.08-1.19c-0.09-0.43-0.2-0.82-0.35-1.18l0.2-0.06
		c0.14,0.38,0.27,0.76,0.37,1.14c0.1,0.37,0.13,0.84,0.08,1.41c-0.06,0.61-0.21,1.18-0.44,1.73c-0.24,0.55-0.56,1.02-0.96,1.41
		c-0.4,0.4-0.88,0.7-1.43,0.91c-0.55,0.21-1.17,0.28-1.87,0.22c-0.44-0.04-0.84-0.16-1.18-0.35c-0.35-0.19-0.63-0.44-0.86-0.74
		c-0.23-0.3-0.39-0.64-0.5-1.02c-0.1-0.38-0.14-0.78-0.1-1.21c0.07-0.71,0.28-1.36,0.64-1.96c0.36-0.6,0.83-1.13,1.4-1.6
		c0.57-0.47,1.22-0.87,1.94-1.21c0.73-0.34,1.49-0.62,2.29-0.83c0.8-0.21,1.61-0.35,2.44-0.42c0.83-0.07,1.62-0.07,2.38,0.01
		c0.78,0.07,1.53,0.19,2.23,0.34c0.7,0.15,1.27,0.31,1.7,0.48c0.26-0.08,0.53-0.14,0.8-0.19c0.27-0.05,0.56-0.09,0.85-0.11
		c0.61-0.06,1.28-0.05,2.01,0.02L62.67,32.49z"/>
	<path class="st0" d="M58.87,46.02l5.48-5.55l2.67,0.64l-3.94,3.4l0.03,0.05c0.94-0.79,1.78-1.4,2.52-1.83
		c0.74-0.43,1.36-0.68,1.85-0.75c0.23-0.16,0.43-0.29,0.59-0.37c0.17-0.09,0.37-0.14,0.6-0.15c0.23-0.02,0.54,0.01,0.91,0.08
		c0.37,0.07,0.87,0.17,1.5,0.32c-0.19,0.11-0.38,0.23-0.58,0.38c-0.2,0.15-0.39,0.31-0.56,0.48c-0.18,0.18-0.34,0.36-0.48,0.56
		c-0.14,0.2-0.24,0.4-0.29,0.61c-0.07,0.26-0.07,0.51,0,0.77c0.07,0.26,0.24,0.42,0.53,0.5c0.18,0.05,0.38,0.06,0.58,0.03
		c0.21-0.03,0.41-0.09,0.62-0.17c0.21-0.08,0.41-0.18,0.6-0.3c0.2-0.12,0.38-0.23,0.54-0.35l0.1,0.15
		c-0.11,0.07-0.27,0.19-0.48,0.33c-0.21,0.15-0.47,0.28-0.79,0.39c-0.31,0.11-0.68,0.19-1.11,0.23c-0.42,0.04-0.91-0.02-1.45-0.16
		c-0.3-0.08-0.55-0.2-0.77-0.36c-0.22-0.16-0.39-0.33-0.52-0.52c-0.13-0.19-0.21-0.4-0.25-0.62c-0.04-0.22-0.03-0.44,0.03-0.66
		c0.1-0.37,0.23-0.64,0.38-0.83l0.01-0.04c-0.42,0.1-0.91,0.32-1.47,0.65c-0.56,0.34-1.12,0.72-1.67,1.16
		c-0.56,0.44-1.08,0.88-1.56,1.34s-0.86,0.84-1.13,1.17L58.87,46.02z"/>
	<path class="st0" d="M81.77,48.77c-0.07,0.03-0.18,0.08-0.33,0.14c-0.15,0.07-0.33,0.13-0.54,0.17c-0.2,0.05-0.43,0.07-0.66,0.08
		c-0.24,0.01-0.47-0.04-0.71-0.14c-0.3-0.13-0.55-0.31-0.73-0.56c-0.18-0.25-0.32-0.53-0.42-0.86l-0.04-0.01
		c-0.25,0.61-0.63,1.13-1.15,1.57c-0.52,0.43-1.1,0.76-1.74,0.98c-0.65,0.22-1.33,0.33-2.04,0.32c-0.71-0.01-1.4-0.15-2.05-0.42
		c-0.39-0.16-0.75-0.36-1.08-0.59c-0.33-0.23-0.6-0.5-0.8-0.8c-0.2-0.3-0.33-0.64-0.37-1.02c-0.04-0.38,0.02-0.79,0.21-1.23
		c0.28-0.67,0.68-1.21,1.22-1.62c0.54-0.41,1.14-0.7,1.8-0.88c0.66-0.18,1.34-0.24,2.05-0.18c0.71,0.06,1.37,0.21,1.98,0.47
		c0.5,0.21,0.89,0.45,1.16,0.73c0.27,0.28,0.48,0.56,0.62,0.86c0.15,0.3,0.25,0.61,0.3,0.92c0.06,0.31,0.12,0.6,0.2,0.87
		c0.07,0.27,0.18,0.52,0.31,0.74c0.14,0.22,0.35,0.39,0.65,0.51c0.27,0.11,0.58,0.15,0.94,0.11c0.35-0.04,0.73-0.16,1.12-0.35
		L81.77,48.77z M76.57,44.51c-0.28-0.12-0.61-0.14-0.97-0.06c-0.37,0.08-0.75,0.21-1.15,0.41c-0.4,0.2-0.8,0.45-1.19,0.75
		c-0.4,0.3-0.77,0.61-1.11,0.94c-0.34,0.33-0.64,0.66-0.89,0.99c-0.25,0.33-0.44,0.64-0.56,0.93c-0.11,0.27-0.14,0.51-0.08,0.73
		c0.06,0.22,0.2,0.37,0.42,0.46c0.28,0.12,0.61,0.14,0.98,0.06c0.37-0.07,0.75-0.21,1.15-0.41c0.4-0.2,0.8-0.45,1.19-0.75
		c0.4-0.3,0.77-0.61,1.11-0.94c0.34-0.33,0.64-0.66,0.9-1c0.26-0.34,0.44-0.65,0.55-0.92c0.11-0.27,0.14-0.51,0.08-0.73
		C76.94,44.75,76.8,44.6,76.57,44.51z"/>
	<path class="st0" d="M90.37,49.08c-0.16,0.14-0.38,0.33-0.67,0.58c-0.29,0.24-0.61,0.51-0.96,0.81c-0.35,0.3-0.71,0.62-1.08,0.96
		c-0.37,0.34-0.71,0.67-1.03,0.99c-0.32,0.32-0.59,0.63-0.81,0.92c-0.23,0.29-0.37,0.55-0.42,0.75c-0.12,0.45,0.05,0.75,0.51,0.87
		c0.34,0.09,0.7,0.09,1.08-0.02c0.38-0.11,0.75-0.28,1.13-0.5c0.37-0.23,0.73-0.5,1.07-0.82c0.34-0.31,0.65-0.62,0.94-0.93
		c0.28-0.31,0.51-0.59,0.7-0.86c0.18-0.27,0.31-0.47,0.37-0.61c0.02-0.11,0.02-0.24,0.02-0.38c-0.01-0.14,0.01-0.3,0.06-0.47
		c0.08-0.31,0.26-0.56,0.52-0.76c0.27-0.2,0.56-0.25,0.89-0.16c0.47,0.13,0.78,0.36,0.93,0.69c0.15,0.33,0.17,0.72,0.05,1.16
		c-0.05,0.2-0.11,0.37-0.18,0.52c-0.07,0.15-0.15,0.31-0.25,0.47c0.35,0.46,0.73,0.75,1.15,0.87c0.21,0.06,0.4,0.08,0.59,0.06
		c0.18-0.02,0.35-0.05,0.51-0.11c0.16-0.06,0.31-0.12,0.44-0.21c0.13-0.08,0.26-0.16,0.37-0.23l0.07,0.2
		c-0.24,0.19-0.54,0.35-0.9,0.48c-0.37,0.13-0.74,0.15-1.12,0.04c-0.28-0.08-0.52-0.19-0.71-0.35c-0.19-0.16-0.37-0.33-0.51-0.52
		c-0.36,0.54-0.82,1-1.4,1.41c-0.58,0.4-1.2,0.73-1.88,0.97c-0.67,0.25-1.36,0.39-2.06,0.45c-0.7,0.05-1.34,0-1.93-0.16
		c-0.7-0.19-1.24-0.48-1.62-0.85c-0.38-0.38-0.48-0.9-0.3-1.56c0.03-0.12,0.08-0.25,0.15-0.37c0.07-0.13,0.13-0.23,0.18-0.33
		l-0.03-0.03c-0.27,0.22-0.56,0.44-0.88,0.67c-0.32,0.23-0.66,0.43-1.01,0.59c-0.36,0.17-0.72,0.29-1.11,0.36
		c-0.38,0.07-0.77,0.06-1.16-0.05c-0.51-0.14-0.87-0.42-1.08-0.84c-0.2-0.42-0.23-0.88-0.09-1.4c0.07-0.27,0.2-0.54,0.39-0.81
		c0.19-0.27,0.44-0.57,0.76-0.9c0.32-0.33,0.7-0.7,1.15-1.11c0.45-0.41,0.97-0.89,1.57-1.44l2.62,0.6
		c-0.16,0.17-0.39,0.37-0.68,0.62c-0.29,0.25-0.61,0.52-0.94,0.81s-0.68,0.6-1.03,0.92s-0.68,0.64-0.98,0.95
		c-0.3,0.31-0.56,0.61-0.77,0.89c-0.21,0.28-0.35,0.53-0.41,0.75c-0.1,0.37,0.02,0.6,0.35,0.69c0.36,0.1,0.79,0.02,1.3-0.23
		c0.51-0.25,1.04-0.59,1.59-1.02c0.4-0.31,0.8-0.65,1.21-1.02c0.4-0.36,0.78-0.72,1.13-1.06c0.35-0.34,0.66-0.65,0.94-0.93
		s0.49-0.49,0.65-0.63L90.37,49.08z"/>
	<path class="st0" d="M93.56,56.96l4.23-6.57l2.71,0c-0.97,1.23-1.9,2.49-2.8,3.77l0.04,0.04c0.35-0.4,0.74-0.84,1.16-1.3
		c0.43-0.47,0.88-0.89,1.34-1.29c0.47-0.39,0.95-0.72,1.44-0.98s0.97-0.38,1.44-0.36c0.48,0.02,0.88,0.16,1.19,0.42
		c0.31,0.26,0.46,0.65,0.44,1.15c-0.02,0.42-0.17,0.85-0.45,1.28s-0.59,0.86-0.92,1.27c-0.34,0.41-0.64,0.81-0.92,1.18
		c-0.28,0.38-0.42,0.71-0.43,1c0,0.13,0.03,0.24,0.09,0.34c0.06,0.1,0.17,0.15,0.33,0.16c0.28,0.01,0.6-0.1,0.97-0.35
		c0.37-0.25,0.75-0.55,1.15-0.91c0.3-0.28,0.61-0.58,0.92-0.91c0.31-0.32,0.59-0.64,0.86-0.94c0.27-0.3,0.51-0.58,0.72-0.83
		c0.21-0.25,0.38-0.45,0.5-0.6l0.17,0.1c-0.46,0.55-0.94,1.12-1.46,1.71c-0.52,0.59-1.03,1.13-1.55,1.61
		c-0.54,0.51-1.07,0.91-1.57,1.18c-0.5,0.28-1.01,0.41-1.52,0.38c-0.57-0.02-0.99-0.21-1.26-0.56c-0.27-0.35-0.4-0.79-0.37-1.32
		c0.02-0.46,0.16-0.89,0.43-1.29c0.27-0.4,0.56-0.78,0.88-1.13c0.32-0.35,0.61-0.67,0.87-0.96c0.26-0.29,0.4-0.57,0.41-0.84
		c0.02-0.35-0.15-0.54-0.49-0.55c-0.23-0.01-0.51,0.1-0.85,0.32c-0.34,0.22-0.71,0.51-1.11,0.88c-0.4,0.36-0.8,0.77-1.22,1.23
		c-0.41,0.45-0.81,0.91-1.17,1.36c-0.37,0.45-0.69,0.89-0.97,1.29c-0.28,0.41-0.49,0.74-0.63,1L93.56,56.96z"/>
	<path class="st0" d="M127.92,51.55c-0.07,0.41-0.23,0.84-0.48,1.3c-0.25,0.46-0.59,0.88-1.03,1.28c-0.44,0.39-0.99,0.75-1.64,1.05
		c-0.66,0.31-1.44,0.52-2.34,0.65c-0.67,0.09-1.34,0.1-2.03,0.04s-1.33-0.25-1.93-0.55c-0.44,0.38-0.9,0.7-1.41,0.96
		c-0.5,0.26-1.04,0.43-1.6,0.51c-0.38,0.05-0.75,0.04-1.11-0.02c-0.36-0.07-0.69-0.19-0.99-0.37c-0.29-0.18-0.54-0.43-0.73-0.73
		c-0.2-0.3-0.32-0.65-0.38-1.06c-0.07-0.54-0.02-1.03,0.15-1.47c0.18-0.44,0.43-0.84,0.76-1.2c0.33-0.36,0.71-0.68,1.13-0.96
		c0.42-0.28,0.84-0.53,1.26-0.74c0.03-0.5,0.14-1.04,0.32-1.61c0.18-0.57,0.44-1.1,0.77-1.61c0.34-0.5,0.74-0.93,1.21-1.28
		c0.47-0.35,1.01-0.57,1.61-0.65c0.37-0.05,0.71,0.02,1.03,0.21s0.51,0.5,0.57,0.94c0.06,0.42-0.05,0.8-0.32,1.15
		c-0.27,0.35-0.61,0.67-1.01,0.96c-0.4,0.29-0.83,0.54-1.28,0.76c-0.45,0.22-0.82,0.41-1.11,0.57c0.11,0.81,0.37,1.56,0.78,2.28
		c0.41,0.71,0.92,1.31,1.52,1.79c0.36-0.54,0.69-1.08,0.99-1.62c0.3-0.54,0.6-1.03,0.91-1.47c0.31-0.44,0.64-0.81,1-1.11
		c0.36-0.3,0.78-0.48,1.27-0.55c0.47-0.06,0.85,0,1.15,0.2c0.3,0.2,0.48,0.51,0.54,0.94c0.04,0.28-0.02,0.54-0.19,0.8
		c-0.16,0.25-0.4,0.4-0.72,0.44c-0.29,0.04-0.54,0-0.74-0.13c-0.2-0.13-0.33-0.35-0.37-0.68c-0.02-0.18-0.01-0.33,0.05-0.47
		c0.06-0.14,0.14-0.26,0.26-0.38c-0.03-0.02-0.09-0.04-0.19-0.06c-0.1-0.02-0.22-0.02-0.35,0c-0.27,0.04-0.52,0.17-0.78,0.39
		c-0.25,0.22-0.51,0.52-0.78,0.9c-0.27,0.38-0.56,0.82-0.86,1.32c-0.3,0.5-0.64,1.05-1.01,1.64c0.62,0.48,1.26,0.82,1.94,1.02
		c0.68,0.2,1.34,0.26,2,0.17c0.57-0.08,1.08-0.23,1.53-0.46c0.46-0.23,0.85-0.51,1.19-0.84c0.34-0.33,0.61-0.69,0.82-1.08
		c0.21-0.39,0.36-0.79,0.44-1.2L127.92,51.55z M114.19,53.57c0.1,0.74,0.38,1.33,0.85,1.76c0.46,0.43,1.1,0.59,1.9,0.48
		c0.23-0.03,0.46-0.1,0.71-0.19c0.24-0.1,0.45-0.23,0.62-0.39c-0.74-0.44-1.34-0.99-1.79-1.65c-0.46-0.66-0.74-1.42-0.86-2.28
		c-0.02-0.14-0.04-0.28-0.05-0.43c-0.01-0.15-0.02-0.29-0.01-0.43c-0.55,0.37-0.94,0.83-1.16,1.36
		C114.16,52.34,114.1,52.93,114.19,53.57z M119.26,46.54c-0.04-0.3-0.12-0.54-0.24-0.73c-0.12-0.18-0.29-0.26-0.5-0.23
		c-0.19,0.03-0.37,0.14-0.54,0.35c-0.17,0.21-0.32,0.48-0.45,0.81c-0.13,0.33-0.22,0.7-0.27,1.12c-0.05,0.41-0.05,0.83,0.01,1.26
		l0.04,0.32c0.62-0.25,1.12-0.62,1.51-1.11C119.21,47.85,119.36,47.25,119.26,46.54z"/>
	<path class="st0" d="M148.31,37.24c-0.71,0.18-1.37,0.45-1.99,0.82c-0.62,0.37-1.12,0.88-1.51,1.52c0.38,0.2,0.76,0.45,1.12,0.75
		c0.36,0.3,0.69,0.64,0.99,1.03c0.3,0.39,0.56,0.81,0.77,1.27c0.21,0.46,0.37,0.96,0.47,1.51c0.17,0.95,0.17,1.82,0,2.6
		c-0.17,0.78-0.46,1.49-0.87,2.11c-0.41,0.62-0.93,1.17-1.55,1.65c-0.62,0.48-1.3,0.89-2.05,1.24c-0.74,0.35-1.53,0.64-2.36,0.88
		c-0.83,0.24-1.66,0.43-2.48,0.57c-0.75,0.13-1.41,0.21-1.96,0.25c-0.55,0.03-0.94,0.06-1.16,0.07c-0.33,0.11-0.71,0.23-1.14,0.36
		c-0.43,0.13-0.86,0.23-1.3,0.31c-0.56,0.1-1.01,0.12-1.33,0.06c-0.33-0.06-0.51-0.2-0.55-0.43c-0.02-0.13,0.02-0.24,0.13-0.35
		s0.32-0.19,0.62-0.24c0.36-0.06,0.86-0.09,1.5-0.07s1.34,0.03,2.12,0.05c0.47-0.16,0.89-0.41,1.25-0.76
		c0.36-0.35,0.69-0.77,0.99-1.28c0.3-0.5,0.57-1.08,0.83-1.73c0.25-0.65,0.51-1.37,0.76-2.15c0.27-0.81,0.53-1.58,0.78-2.33
		c0.25-0.74,0.53-1.44,0.83-2.1c0.3-0.66,0.65-1.28,1.04-1.85c0.39-0.57,0.85-1.09,1.39-1.56c-0.52-0.24-1.13-0.41-1.84-0.5
		c-0.71-0.09-1.51-0.05-2.41,0.1c-0.81,0.14-1.59,0.46-2.34,0.95c-0.75,0.49-1.39,1.1-1.92,1.83c-0.54,0.73-0.93,1.54-1.19,2.45
		c-0.25,0.9-0.29,1.84-0.12,2.82c0.05,0.31,0.14,0.61,0.25,0.89c0.11,0.28,0.26,0.52,0.45,0.73c0.18,0.2,0.41,0.35,0.68,0.44
		c0.27,0.09,0.58,0.11,0.95,0.05c0.49-0.09,0.9-0.29,1.24-0.61s0.6-0.71,0.8-1.15c0.19-0.44,0.31-0.91,0.36-1.4s0.04-0.95-0.04-1.38
		c-0.07-0.38-0.17-0.78-0.33-1.2c-0.15-0.43-0.35-0.83-0.6-1.23l0.17-0.11c0.25,0.38,0.46,0.79,0.62,1.22
		c0.17,0.43,0.28,0.82,0.34,1.17c0.13,0.73,0.13,1.4,0.01,2.01c-0.12,0.62-0.33,1.16-0.65,1.63c-0.32,0.47-0.72,0.86-1.21,1.17
		c-0.49,0.31-1.04,0.52-1.67,0.63c-0.46,0.08-0.9,0.07-1.3-0.04c-0.41-0.11-0.77-0.29-1.08-0.54c-0.32-0.25-0.58-0.57-0.79-0.94
		c-0.21-0.37-0.35-0.77-0.42-1.19c-0.12-0.7-0.11-1.38,0.04-2.03c0.15-0.65,0.4-1.27,0.76-1.86c0.35-0.58,0.79-1.13,1.31-1.63
		c0.52-0.5,1.09-0.95,1.71-1.34c0.62-0.39,1.28-0.72,1.97-0.99c0.69-0.27,1.37-0.46,2.05-0.58c0.85-0.15,1.68-0.18,2.5-0.1
		c0.82,0.08,1.5,0.24,2.04,0.48c0.63-0.54,1.31-0.98,2.03-1.33c0.73-0.35,1.48-0.63,2.27-0.85L148.31,37.24z M136.38,53.22
		c0.36,0,0.79-0.03,1.29-0.09c0.5-0.06,0.97-0.13,1.41-0.21c0.93-0.16,1.75-0.45,2.47-0.85c0.72-0.4,1.35-0.89,1.87-1.44
		c0.52-0.56,0.95-1.17,1.29-1.85c0.34-0.68,0.6-1.37,0.78-2.07c0.18-0.7,0.28-1.41,0.31-2.11c0.03-0.7-0.01-1.35-0.12-1.95
		c-0.08-0.48-0.21-0.94-0.37-1.41c-0.17-0.46-0.43-0.86-0.78-1.2c-0.38,0.85-0.7,1.7-0.97,2.54s-0.52,1.66-0.78,2.46
		c-0.25,0.8-0.53,1.57-0.83,2.32c-0.3,0.75-0.69,1.47-1.17,2.16c-0.48,0.69-1.07,1.34-1.77,1.96c-0.7,0.61-1.58,1.18-2.63,1.7
		L136.38,53.22z"/>
	<path class="st0" d="M153.61,43.22c-0.28,0.71-0.56,1.4-0.84,2.07s-0.52,1.29-0.72,1.87c-0.2,0.57-0.36,1.08-0.47,1.51
		c-0.11,0.43-0.14,0.77-0.1,1.01c0.03,0.18,0.09,0.32,0.17,0.42c0.08,0.11,0.21,0.15,0.37,0.12c0.25-0.05,0.5-0.19,0.76-0.42
		c0.26-0.23,0.52-0.52,0.78-0.86c0.26-0.34,0.51-0.71,0.76-1.13c0.25-0.41,0.48-0.82,0.69-1.21c0.21-0.39,0.4-0.76,0.56-1.11
		c0.16-0.35,0.29-0.63,0.4-0.84l0.16,0.03c-0.22,0.48-0.5,1.06-0.84,1.75c-0.34,0.69-0.74,1.37-1.19,2.05
		c-0.47,0.69-0.92,1.24-1.35,1.63c-0.43,0.4-0.95,0.65-1.55,0.76c-0.51,0.09-0.93,0.02-1.24-0.23c-0.32-0.25-0.52-0.63-0.62-1.16
		c-0.1-0.56,0.01-1.31,0.33-2.24c0.33-0.93,0.75-2.08,1.26-3.46L153.61,43.22z M152.11,40.47c-0.07-0.36,0-0.7,0.21-1
		c0.21-0.3,0.49-0.49,0.86-0.56c0.36-0.07,0.7,0.01,1,0.21c0.3,0.21,0.49,0.5,0.56,0.86c0.06,0.36,0,0.7-0.21,1
		c-0.21,0.3-0.5,0.49-0.86,0.55s-0.69,0-1-0.21S152.18,40.83,152.11,40.47z"/>
	<path class="st0" d="M164.24,43.32c-0.38,0.71-0.77,1.41-1.18,2.09c-0.4,0.68-0.89,1.35-1.46,2c-0.52,0.59-1.08,1.08-1.69,1.47
		c-0.61,0.39-1.33,0.66-2.17,0.8c-0.34,0.06-0.68,0.07-1.02,0.04c-0.34-0.03-0.65-0.11-0.93-0.25c-0.28-0.13-0.52-0.32-0.72-0.57
		c-0.2-0.25-0.33-0.56-0.4-0.94c-0.13-0.74-0.06-1.45,0.21-2.13c0.27-0.68,0.66-1.29,1.16-1.84c0.51-0.55,1.08-1,1.74-1.38
		c0.65-0.37,1.3-0.61,1.94-0.72c0.6-0.1,1.11-0.09,1.52,0.06c0.41,0.14,0.65,0.42,0.73,0.83c0.04,0.26,0.03,0.5-0.05,0.71
		c-0.08,0.21-0.21,0.4-0.38,0.57c-0.17,0.17-0.38,0.3-0.62,0.41c-0.24,0.11-0.5,0.18-0.77,0.23L160,44.75c0-0.14-0.01-0.3-0.03-0.47
		c-0.02-0.17-0.06-0.38-0.1-0.63c-0.08-0.44-0.17-0.76-0.29-0.98c-0.11-0.21-0.29-0.3-0.53-0.26c-0.26,0.04-0.53,0.25-0.79,0.6
		c-0.26,0.35-0.5,0.78-0.7,1.27c-0.2,0.49-0.35,1.02-0.45,1.57c-0.1,0.55-0.11,1.05-0.03,1.49c0.09,0.54,0.3,0.95,0.63,1.25
		c0.33,0.29,0.76,0.39,1.3,0.3c0.56-0.1,1.12-0.39,1.67-0.89c0.55-0.5,1.09-1.12,1.63-1.87c0.35-0.49,0.69-1,1-1.56
		c0.31-0.55,0.56-1,0.76-1.36L164.24,43.32z"/>
	<path class="st0" d="M161.21,48.77c0.99-2.37,1.97-4.74,2.94-7.09c0.97-2.36,1.95-4.73,2.94-7.13l2.69-0.57
		c-0.81,1.92-1.62,3.83-2.42,5.71c-0.81,1.88-1.63,3.74-2.48,5.57l0.04,0.03c0.28-0.46,0.59-0.96,0.92-1.5
		c0.33-0.54,0.68-1.05,1.07-1.52s0.8-0.88,1.25-1.22c0.45-0.34,0.95-0.55,1.49-0.62c0.21-0.03,0.42-0.04,0.63-0.02
		c0.21,0.02,0.39,0.07,0.56,0.15c0.17,0.09,0.31,0.2,0.42,0.35c0.12,0.15,0.19,0.34,0.23,0.58c0.06,0.41-0.05,0.77-0.31,1.07
		c-0.27,0.3-0.59,0.55-0.98,0.75c-0.39,0.2-0.79,0.36-1.21,0.49c-0.42,0.12-0.75,0.21-1,0.27l0.01,0.04c0.2,0.05,0.4,0.1,0.6,0.15
		c0.2,0.05,0.38,0.12,0.55,0.2c0.17,0.09,0.31,0.2,0.43,0.35c0.12,0.14,0.2,0.33,0.23,0.56c0.02,0.13,0.01,0.26-0.01,0.41
		s-0.06,0.29-0.09,0.43s-0.07,0.28-0.1,0.41c-0.03,0.13-0.03,0.25-0.02,0.35c0.03,0.24,0.16,0.35,0.37,0.31
		c0.21-0.03,0.45-0.15,0.7-0.36c0.25-0.21,0.52-0.47,0.79-0.79c0.28-0.31,0.55-0.66,0.83-1.05c0.27-0.39,0.53-0.77,0.77-1.17
		c0.24-0.39,0.46-0.77,0.65-1.12c0.19-0.35,0.35-0.66,0.47-0.9l0.18,0.05c-0.24,0.48-0.55,1.05-0.92,1.7s-0.79,1.29-1.27,1.92
		c-0.32,0.43-0.62,0.79-0.89,1.07c-0.27,0.28-0.53,0.51-0.79,0.69c-0.26,0.18-0.51,0.31-0.76,0.4c-0.25,0.09-0.51,0.16-0.79,0.2
		c-0.53,0.07-0.98,0.02-1.34-0.16c-0.37-0.18-0.58-0.5-0.65-0.97c-0.04-0.27-0.02-0.5,0.04-0.71c0.07-0.21,0.14-0.41,0.23-0.6
		c0.09-0.19,0.17-0.39,0.24-0.58c0.07-0.2,0.09-0.41,0.05-0.64c-0.16,0.09-0.32,0.17-0.48,0.25c-0.17,0.08-0.34,0.13-0.52,0.15
		c-0.09,0.01-0.17,0-0.23-0.03c-0.07-0.03-0.11-0.1-0.12-0.2c-0.03-0.21,0.11-0.33,0.41-0.38c0.2-0.03,0.38-0.04,0.54-0.03
		c0.16,0.01,0.29,0.01,0.4-0.01c0.19-0.03,0.37-0.11,0.55-0.26c0.18-0.15,0.34-0.32,0.49-0.53c0.14-0.2,0.25-0.43,0.33-0.67
		c0.07-0.24,0.1-0.47,0.07-0.68c-0.02-0.15-0.08-0.27-0.19-0.37c-0.1-0.09-0.24-0.13-0.4-0.11c-0.23,0.03-0.49,0.18-0.77,0.46
		c-0.29,0.27-0.59,0.61-0.89,1.03c-0.31,0.42-0.61,0.88-0.91,1.38c-0.3,0.5-0.58,1.01-0.84,1.5c-0.26,0.5-0.48,0.97-0.68,1.41
		c-0.19,0.44-0.34,0.81-0.44,1.09L161.21,48.77z"/>
	<path class="st0" d="M182.24,41.42c-0.41,0.74-0.85,1.44-1.33,2.1c-0.47,0.67-1.01,1.26-1.62,1.78s-1.3,0.95-2.07,1.29
		c-0.77,0.34-1.68,0.55-2.7,0.64c-0.38,0.03-0.74,0.02-1.08-0.02c-0.34-0.05-0.64-0.14-0.89-0.29c-0.25-0.14-0.46-0.34-0.62-0.59
		c-0.16-0.25-0.26-0.55-0.29-0.9c-0.04-0.47,0.08-0.85,0.35-1.15c0.27-0.3,0.61-0.46,1-0.5c0.27-0.02,0.5,0.03,0.7,0.17
		c0.2,0.14,0.32,0.36,0.34,0.66c0.02,0.28-0.04,0.49-0.19,0.65c-0.15,0.15-0.33,0.24-0.53,0.26c-0.15,0.01-0.28,0-0.38-0.02
		c-0.06,0.11-0.08,0.23-0.07,0.37c0.03,0.41,0.17,0.71,0.4,0.91c0.23,0.2,0.56,0.29,0.98,0.25c0.55-0.05,0.94-0.24,1.18-0.58
		c0.24-0.34,0.34-0.73,0.3-1.17c-0.02-0.27-0.13-0.52-0.31-0.76c-0.19-0.24-0.39-0.48-0.61-0.72c-0.22-0.24-0.42-0.49-0.61-0.73
		c-0.19-0.25-0.29-0.5-0.31-0.77c-0.02-0.3,0.02-0.6,0.14-0.89c0.12-0.29,0.3-0.56,0.55-0.8c0.25-0.24,0.57-0.45,0.95-0.61
		c0.38-0.16,0.83-0.26,1.33-0.3c0.74-0.06,1.34,0.01,1.83,0.22c0.48,0.21,0.75,0.55,0.78,1.02c0.03,0.35-0.07,0.65-0.29,0.9
		c-0.22,0.24-0.5,0.38-0.83,0.4c-0.29,0.02-0.57-0.03-0.84-0.16c0.08-0.15,0.13-0.3,0.17-0.46s0.05-0.33,0.03-0.52
		c-0.03-0.32-0.12-0.6-0.29-0.84c-0.17-0.24-0.42-0.35-0.75-0.32c-0.29,0.02-0.51,0.14-0.66,0.36c-0.15,0.22-0.21,0.49-0.18,0.82
		c0.03,0.32,0.15,0.6,0.36,0.86c0.21,0.26,0.44,0.51,0.68,0.76c0.24,0.25,0.47,0.51,0.69,0.78c0.21,0.28,0.34,0.6,0.37,0.96
		c0.04,0.43-0.03,0.8-0.2,1.12c-0.17,0.31-0.45,0.6-0.84,0.86l0.04,0.04c0.53-0.2,1.05-0.48,1.55-0.85c0.5-0.37,0.97-0.79,1.41-1.26
		c0.45-0.47,0.85-0.97,1.22-1.51c0.37-0.54,0.69-1.07,0.96-1.6L182.24,41.42z"/>
	<path class="st0" d="M192.63,41.54c-0.05,0.05-0.13,0.14-0.25,0.26c-0.12,0.12-0.26,0.24-0.43,0.36c-0.17,0.12-0.36,0.23-0.58,0.32
		c-0.22,0.1-0.45,0.14-0.71,0.14c-0.33,0-0.63-0.08-0.89-0.24c-0.26-0.16-0.5-0.37-0.71-0.64h-0.04c0,0.66-0.16,1.29-0.47,1.89
		c-0.31,0.6-0.72,1.12-1.24,1.57c-0.52,0.45-1.1,0.81-1.76,1.07c-0.66,0.26-1.35,0.39-2.06,0.39c-0.42,0-0.83-0.04-1.22-0.13
		c-0.39-0.09-0.74-0.23-1.05-0.44s-0.55-0.47-0.73-0.8c-0.18-0.33-0.28-0.74-0.28-1.22c0-0.72,0.17-1.38,0.51-1.96
		c0.34-0.58,0.79-1.08,1.33-1.5c0.54-0.41,1.15-0.73,1.83-0.94c0.68-0.22,1.35-0.32,2.01-0.32c0.55,0,1,0.08,1.35,0.23
		c0.36,0.15,0.66,0.34,0.91,0.56c0.25,0.22,0.46,0.47,0.63,0.73c0.17,0.27,0.34,0.51,0.52,0.73c0.17,0.22,0.36,0.41,0.57,0.56
		c0.21,0.15,0.47,0.23,0.79,0.23c0.29,0,0.59-0.09,0.91-0.26c0.31-0.17,0.61-0.42,0.91-0.75L192.63,41.54z M186.2,39.58
		c-0.31,0-0.61,0.1-0.92,0.31c-0.31,0.21-0.61,0.48-0.91,0.82c-0.29,0.34-0.57,0.72-0.82,1.14c-0.25,0.43-0.48,0.86-0.67,1.29
		c-0.19,0.43-0.34,0.85-0.45,1.26c-0.11,0.41-0.16,0.76-0.16,1.07c0,0.29,0.07,0.53,0.2,0.71c0.13,0.18,0.32,0.27,0.56,0.27
		c0.31,0,0.61-0.1,0.92-0.31c0.31-0.21,0.61-0.48,0.91-0.82c0.29-0.34,0.57-0.72,0.82-1.14c0.25-0.43,0.48-0.85,0.67-1.29
		c0.19-0.43,0.34-0.86,0.45-1.27c0.11-0.41,0.16-0.77,0.16-1.06c0-0.29-0.07-0.53-0.2-0.71C186.63,39.67,186.44,39.58,186.2,39.58z"
		/>
	<path class="st0" d="M188.52,46.19l4.81-6.16l2.7,0.25c-1.08,1.14-2.12,2.31-3.12,3.51l0.03,0.04c0.38-0.37,0.81-0.77,1.28-1.2
		c0.47-0.42,0.95-0.81,1.45-1.16c0.5-0.35,1.01-0.63,1.52-0.85c0.51-0.21,1-0.29,1.46-0.23c0.48,0.06,0.86,0.24,1.15,0.53
		c0.29,0.29,0.4,0.69,0.33,1.19c-0.06,0.42-0.24,0.83-0.56,1.23c-0.32,0.41-0.66,0.8-1.03,1.18c-0.37,0.38-0.71,0.74-1.02,1.09
		c-0.31,0.35-0.48,0.67-0.52,0.96c-0.02,0.12,0,0.24,0.06,0.34c0.06,0.1,0.16,0.17,0.31,0.19c0.28,0.04,0.61-0.05,1-0.26
		c0.39-0.21,0.8-0.48,1.22-0.81c0.33-0.25,0.66-0.52,1-0.82c0.33-0.29,0.65-0.58,0.94-0.85c0.29-0.27,0.56-0.53,0.79-0.76
		c0.24-0.23,0.42-0.42,0.55-0.55l0.16,0.12c-0.5,0.51-1.04,1.03-1.6,1.57c-0.57,0.54-1.13,1.03-1.69,1.47
		c-0.59,0.46-1.14,0.81-1.67,1.04c-0.53,0.23-1.04,0.31-1.54,0.25c-0.57-0.08-0.97-0.3-1.21-0.67c-0.24-0.37-0.32-0.82-0.25-1.35
		c0.06-0.45,0.24-0.87,0.54-1.25c0.3-0.38,0.63-0.72,0.98-1.04c0.35-0.32,0.67-0.61,0.96-0.88c0.29-0.27,0.45-0.54,0.48-0.8
		c0.05-0.35-0.1-0.55-0.44-0.6c-0.23-0.03-0.52,0.05-0.88,0.24c-0.36,0.19-0.75,0.45-1.18,0.77c-0.43,0.33-0.87,0.7-1.32,1.11
		c-0.45,0.41-0.88,0.83-1.29,1.25c-0.41,0.42-0.77,0.82-1.08,1.2c-0.31,0.38-0.55,0.7-0.71,0.94L188.52,46.19z"/>
</g>
<g>
</g>
<g>
</g>
<g>
</g>
<g>
</g>
<g>
</g>
<g>
</g>
</svg>
