<?xml version="1.0" encoding="utf-8"?>
<!-- Generator: Adobe Illustrator 16.0.4, SVG Export Plug-In . SVG Version: 6.00 Build 0)  -->
<!DOCTYPE svg PUBLIC "-//W3C//DTD SVG 1.0//EN" "http://www.w3.org/TR/2001/REC-SVG-20010904/DTD/svg10.dtd">
<svg version="1.0" id="Layer_1" xmlns="http://www.w3.org/2000/svg" xmlns:xlink="http://www.w3.org/1999/xlink" x="0px" y="0px"
	 width="15px" height="15px" viewBox="0 0 15 15" enable-background="new 0 0 15 15" xml:space="preserve">
<circle fill="#4D1F03" cx="7.5" cy="7.5" r="7.487"/>
<g>
	<polygon fill="#FFFFFF" points="5.802,7.503 1.844,3.544 1.844,11.457 	"/>
	<path fill="#FFFFFF" d="M2.055,3.152l5.238,5.241C7.348,8.45,7.418,8.476,7.504,8.476c0.084,0,0.155-0.025,0.211-0.082l5.238-5.241
		H2.055z"/>
	<path fill="#FFFFFF" d="M8.994,7.801L7.925,8.861c-0.115,0.115-0.257,0.18-0.42,0.18s-0.307-0.064-0.428-0.18L6.014,7.801
		l-3.959,4.047h10.892L8.994,7.801z"/>
	<polygon fill="#FFFFFF" points="9.207,7.503 13.156,11.457 13.156,3.544 	"/>
</g>
<path fill="none" stroke="#4D1F08" stroke-miterlimit="10" d="M1.844,3.344l5.429,5.43c0,0,0.227,0.18,0.539-0.086
	s5.344-5.344,5.344-5.344"/>
<line fill="none" stroke="#4D1F08" stroke-miterlimit="10" x1="9.094" y1="7.656" x2="13.18" y2="11.742"/>
<line fill="none" stroke="#4D1F08" stroke-miterlimit="10" x1="5.922" y1="7.656" x2="1.844" y2="11.742"/>
</svg>
