<?xml version="1.0" encoding="utf-8"?>
<!-- Generator: Adobe Illustrator 16.0.4, SVG Export Plug-In . SVG Version: 6.00 Build 0)  -->
<!DOCTYPE svg PUBLIC "-//W3C//DTD SVG 1.1//EN" "http://www.w3.org/Graphics/SVG/1.1/DTD/svg11.dtd">
<svg version="1.1" id="Layer_1" xmlns="http://www.w3.org/2000/svg" xmlns:xlink="http://www.w3.org/1999/xlink" x="0px" y="0px"
	 width="45px" height="45px" viewBox="0 0 45 45" enable-background="new 0 0 45 45" xml:space="preserve">
<g>
	<path fill="#4D1F03" d="M0,7.2C0,3.24,3.24,0,7.2,0h30.6C41.76,0,45,3.24,45,7.2v30.6c0,3.96-3.24,7.2-7.2,7.2H7.2
		C3.24,45,0,41.76,0,37.8V7.2z"/>
</g>
<path fill="#FFFFFF" d="M39.246,26.938l0.888-6.888h-6.821v-4.398c0-1.994,0.558-3.353,3.416-3.353l3.646-0.002v-6.16
	c-0.629-0.084-2.793-0.272-5.313-0.272c-5.26,0-8.857,3.211-8.857,9.106v5.079h-5.948v6.888h5.948v17.674h7.111V26.938H39.246z"/>
</svg>
