<?xml version="1.0" encoding="utf-8"?>
<!-- Generator: Adobe Illustrator 16.0.4, SVG Export Plug-In . SVG Version: 6.00 Build 0)  -->
<!DOCTYPE svg PUBLIC "-//W3C//DTD SVG 1.1//EN" "http://www.w3.org/Graphics/SVG/1.1/DTD/svg11.dtd">
<svg version="1.1" id="Layer_1" xmlns="http://www.w3.org/2000/svg" xmlns:xlink="http://www.w3.org/1999/xlink" x="0px" y="0px"
	 width="45px" height="45px" viewBox="0 0 45 45" enable-background="new 0 0 45 45" xml:space="preserve">
<g>
	<g id="instagram-back">
		<path fill="#4D1F03" d="M0,7.2C0,3.24,3.24,0,7.2,0h30.6C41.76,0,45,3.24,45,7.2v30.6c0,3.96-3.24,7.2-7.2,7.2H7.2
			C3.24,45,0,41.76,0,37.8V7.2z"/>
	</g>
	<path id="instagram-instagram" fill="#FFFFFF" d="M32.193,20.561H30c0.159,0.621,0.254,1.269,0.254,1.939
		c0,4.283-3.473,7.754-7.754,7.754s-7.753-3.472-7.753-7.754c0-0.67,0.095-1.318,0.255-1.939h-2.193v10.664
		c0,0.534,0.434,0.967,0.97,0.967h17.446c0.535,0,0.971-0.434,0.971-0.967V20.561H32.193z M32.193,13.777
		c0-0.535-0.436-0.969-0.971-0.969h-2.906c-0.535,0-0.971,0.435-0.971,0.969v2.908c0,0.535,0.436,0.968,0.971,0.968h2.906
		c0.535,0,0.971-0.434,0.971-0.968V13.777z M22.5,17.653c-2.676,0-4.846,2.169-4.846,4.846s2.17,4.847,4.846,4.847
		c2.677,0,4.848-2.17,4.848-4.847S25.177,17.653,22.5,17.653 M32.193,35.1H12.808c-1.605,0-2.907-1.302-2.907-2.908V12.808
		c0-1.605,1.302-2.907,2.907-2.907h19.385c1.606,0,2.908,1.302,2.908,2.907v19.383C35.102,33.798,33.8,35.1,32.193,35.1"/>
</g>
</svg>
