<?xml version="1.0" encoding="utf-8"?>
<!-- Generator: Adobe Illustrator 16.0.4, SVG Export Plug-In . SVG Version: 6.00 Build 0)  -->
<!DOCTYPE svg PUBLIC "-//W3C//DTD SVG 1.0//EN" "http://www.w3.org/TR/2001/REC-SVG-20010904/DTD/svg10.dtd">
<svg version="1.0" id="Layer_1" xmlns="http://www.w3.org/2000/svg" xmlns:xlink="http://www.w3.org/1999/xlink" x="0px" y="0px"
	 width="15px" height="15px" viewBox="16.405 15 15 15" enable-background="new 16.405 15 15 15" xml:space="preserve">
<circle fill="#4D1F03" cx="23.918" cy="22.513" r="7.487"/>
<g id="電話_-_グレー">
	<path fill="#FFFFFF" d="M25.397,25.372l0.224-0.111c0.927-0.458,1.681-0.101,2.264,1.074c0.223,0.447,0.299,0.788,0.233,1.019
		c-0.07,0.23-0.311,0.449-0.728,0.655l-0.262,0.131c-0.062-0.473-0.177-0.873-0.34-1.202C26.477,26.309,26.015,25.788,25.397,25.372
		z M21.474,16.781l0.287-0.143c0.375-0.186,0.67-0.231,0.891-0.14c0.22,0.092,0.436,0.353,0.65,0.783
		c0.59,1.193,0.451,2.005-0.42,2.438l-0.277,0.139c0.025-0.726-0.125-1.422-0.455-2.087C21.964,17.397,21.738,17.067,21.474,16.781z
		 M19.67,18.512c0.384-0.602,0.895-1.133,1.532-1.597c0.261,0.321,0.476,0.656,0.649,1.003c0.288,0.584,0.44,1.28,0.454,2.086
		l-0.132,0.066c-0.604,0.298-0.454,1.356,0.448,3.171c0.93,1.878,1.696,2.667,2.3,2.367l0.13-0.064
		c0.668,0.442,1.152,0.963,1.449,1.56c0.18,0.366,0.291,0.762,0.329,1.184c-0.688,0.21-1.419,0.293-2.188,0.25
		c-0.664-0.623-1.275-1.315-1.832-2.079c-0.557-0.762-1.058-1.593-1.504-2.494c-0.458-0.92-0.822-1.834-1.093-2.742
		C19.941,20.316,19.761,19.412,19.67,18.512z"/>
</g>
</svg>
