<?xml version="1.0" encoding="utf-8"?>
<!-- Generator: Adobe Illustrator 16.0.4, SVG Export Plug-In . SVG Version: 6.00 Build 0)  -->
<!DOCTYPE svg PUBLIC "-//W3C//DTD SVG 1.1//EN" "http://www.w3.org/Graphics/SVG/1.1/DTD/svg11.dtd">
<svg version="1.1" id="レイヤー_1" xmlns="http://www.w3.org/2000/svg" xmlns:xlink="http://www.w3.org/1999/xlink" x="0px"
	 y="0px" width="107.17px" height="74.26px" viewBox="0 0 107.17 74.26" enable-background="new 0 0 107.17 74.26"
	 xml:space="preserve">
<g>
	
		<path fill="#F5DEB3" stroke="#4D1F03" stroke-width="0.375" stroke-linecap="round" stroke-linejoin="round" stroke-miterlimit="10" d="
		M7.74,55.86l46.12,9.43V12.9c0,0-9.93-12.76-41.54-9.84L7.74,55.86z"/>
	
		<path fill="#F5DEB3" stroke="#4D1F03" stroke-width="0.375" stroke-linecap="round" stroke-linejoin="round" stroke-miterlimit="10" d="
		M6.53,57.069L52.65,66.5l0.56-53.61c0,0-11.72-10.14-42.71-9.22L6.53,57.069z"/>
	
		<path fill="#F5DEB3" stroke="#4D1F03" stroke-width="0.375" stroke-linecap="round" stroke-linejoin="round" stroke-miterlimit="10" d="
		M7.76,55.84l46.12,9.431v-50.9c0,0-16.15-10.74-45.04-10.05L7.76,55.84z"/>
	
		<path fill="#F5DEB3" stroke="#4D1F03" stroke-width="0.375" stroke-linecap="round" stroke-linejoin="round" stroke-miterlimit="10" d="
		M5.41,58.19l46.12,9.43V14.47c0,0-17.15-9.01-44.38-9.66L5.41,58.19z"/>
	
		<path fill="#F5DEB3" stroke="#4D1F03" stroke-width="0.375" stroke-linecap="round" stroke-linejoin="round" stroke-miterlimit="10" d="
		M5.41,58.19l46.12,10.83V15.88c0,0-19.21-8.66-46.87-10.84L5.41,58.19z"/>
	
		<path fill="#F5DEB3" stroke="#4D1F03" stroke-width="0.375" stroke-linecap="round" stroke-linejoin="round" stroke-miterlimit="10" d="
		M4.29,54.44l46.12,10.84l-1.23-49.8c0,0-18.38-6.01-44.52-10.43L4.29,54.44z"/>
	
		<path fill="#F5DEB3" stroke="#4D1F03" stroke-width="0.375" stroke-linecap="round" stroke-linejoin="round" stroke-miterlimit="10" d="
		M100.04,55.86l-46.12,9.43V12.9c0,0,9.931-12.76,41.54-9.84L100.04,55.86z"/>
	
		<path fill="#F5DEB3" stroke="#4D1F03" stroke-width="0.375" stroke-linecap="round" stroke-linejoin="round" stroke-miterlimit="10" d="
		M101.25,57.069L55.13,66.5l-0.561-53.61c0,0,11.721-10.14,42.711-9.22L101.25,57.069z"/>
	
		<path fill="#F5DEB3" stroke="#4D1F03" stroke-width="0.375" stroke-linecap="round" stroke-linejoin="round" stroke-miterlimit="10" d="
		M100.01,55.84l-46.12,9.431v-50.9c0,0,16.15-10.74,45.041-10.05L100.01,55.84z"/>
	
		<path fill="#F5DEB3" stroke="#4D1F03" stroke-width="0.375" stroke-linecap="round" stroke-linejoin="round" stroke-miterlimit="10" d="
		M102.37,58.19l-46.12,9.43V14.47c0,0,17.149-9.01,44.38-9.66L102.37,58.19z"/>
	
		<path fill="#F5DEB3" stroke="#4D1F03" stroke-width="0.375" stroke-linecap="round" stroke-linejoin="round" stroke-miterlimit="10" d="
		M102.37,58.19l-46.13,10.83V15.88c0,0,19.21-8.66,46.87-10.84L102.37,58.19z"/>
	
		<path fill="#F5DEB3" stroke="#4D1F03" stroke-width="0.375" stroke-linecap="round" stroke-linejoin="round" stroke-miterlimit="10" d="
		M103.49,54.44L57.37,65.28l1.23-49.8c0,0,18.379-6.01,44.52-10.43L103.49,54.44z"/>
</g>
<ellipse fill="#F5DEB3" stroke="#4D1F03" stroke-width="0.2969" stroke-linecap="round" stroke-linejoin="round" stroke-miterlimit="10" cx="53.86" cy="14.98" rx="9.14" ry="2.83"/>
<g>
	
		<path fill="#F5DEB3" stroke="#4D1F03" stroke-width="0.375" stroke-linecap="round" stroke-linejoin="round" stroke-miterlimit="10" d="
		M4.15,57.96L2.67,5.46c0,0,0.36-0.74,1.48-0.65l40.55,9.26c10.279,5.26,18.279,0,18.279,0l40.551-9.26c1-0.05,1.52,0.65,1.52,0.65
		l-1.52,52.5l-40.551,9.27V67c0,0-9.14,8-18.279,0L4.15,57.96z"/>
</g>
<path fill="#F5DEB3" stroke="#4D1F03" stroke-width="0.375" stroke-miterlimit="10" d="M63,68.62c0,0-9.14,8-18.28,0V15.48
	c10.28,5.26,18.28,0,18.28,0V68.62z"/>
<path fill="none" stroke="#4D1F03" stroke-width="0.1875" stroke-miterlimit="10" d="M63,33.31c0,0-9.14,8-18.28,0V20.24
	C55,25.5,63,20.24,63,20.24V33.31z"/>
<path fill="none" stroke="#4D1F03" stroke-width="0.1875" stroke-miterlimit="10" d="M53.52,35.8c-2.74,0-5.34-1-7.74-2.98V21.91
	c2.7,1.15,5.47,1.73,8.25,1.73c3.51,0,6.27-0.92,7.911-1.65V32.8C60.88,33.6,57.58,35.8,53.52,35.8z"/>
<path fill="none" stroke="#4D1F03" stroke-width="0.1875" stroke-miterlimit="10" d="M53.52,34.74c-2.34,0-4.58-0.82-6.68-2.43
	v-8.85c2.36,0.83,4.77,1.24,7.18,1.24c2.77,0,5.1-0.54,6.85-1.15v8.7C59.649,33.1,56.83,34.74,53.52,34.74z"/>
<path fill="none" stroke="#4D1F03" stroke-width="0.1875" stroke-miterlimit="10" d="M63,61.96c0,0-9.14,8-18.28,0v-8.54
	c10.28,5.261,18.28,0,18.28,0V61.96z"/>
<path fill="none" stroke="#4D1F03" stroke-width="0.1875" stroke-miterlimit="10" d="M53.52,64.45c-2.74,0-5.34-1-7.74-2.98v-6.369
	c2.7,1.149,5.47,1.729,8.25,1.729c3.51,0,6.27-0.92,7.911-1.649v6.27C60.88,62.25,57.58,64.45,53.52,64.45z"/>
<path fill="none" stroke="#4D1F03" stroke-width="0.1875" stroke-miterlimit="10" d="M53.52,63.39c-2.34,0-4.58-0.82-6.68-2.43
	v-4.311c2.36,0.82,4.77,1.24,7.18,1.24c2.77,0,5.1-0.539,6.85-1.149v4.17C59.649,61.75,56.83,63.39,53.52,63.39z"/>
<polygon fill="#F5DEB3" stroke="#4D1F03" stroke-width="0.375" stroke-miterlimit="10" points="2.67,58.61 44.72,68.62 44.72,15.48 
	2.67,5.46 "/>
<polygon fill="none" stroke="#4D1F03" stroke-width="0.1875" stroke-miterlimit="10" points="5.86,56.09 5.86,9.5 41.53,18 
	41.53,64.59 "/>
<polygon fill="none" stroke="#4D1F03" stroke-width="0.1875" stroke-miterlimit="10" points="6.92,55.25 6.92,10.85 40.47,18.84 
	40.47,63.24 "/>
<polygon fill="none" stroke="#4D1F03" stroke-width="0.1875" stroke-miterlimit="10" points="7.98,54.41 7.98,12.19 39.41,19.68 
	39.41,61.89 "/>
<polygon fill="#F5DEB3" stroke="#4D1F03" stroke-width="0.375" stroke-miterlimit="10" points="105.06,58.61 63,68.62 63,15.48 
	105.06,5.46 "/>
<polygon fill="none" stroke="#4D1F03" stroke-width="0.1875" stroke-miterlimit="10" points="66.19,18 101.87,9.5 101.87,56.09 
	66.19,64.59 "/>
<polygon fill="none" stroke="#4D1F03" stroke-width="0.1875" stroke-miterlimit="10" points="67.26,18.84 100.8,10.85 100.8,55.25 
	67.26,63.24 "/>
<polygon fill="none" stroke="#4D1F03" stroke-width="0.1875" stroke-miterlimit="10" points="68.319,19.68 99.74,12.19 99.74,54.41 
	68.319,61.89 "/>
</svg>
