<?xml version="1.0" encoding="utf-8"?>
<!-- Generator: Adobe Illustrator 16.0.4, SVG Export Plug-In . SVG Version: 6.00 Build 0)  -->
<!DOCTYPE svg PUBLIC "-//W3C//DTD SVG 1.1//EN" "http://www.w3.org/Graphics/SVG/1.1/DTD/svg11.dtd">
<svg version="1.1" id="Layer_1" xmlns="http://www.w3.org/2000/svg" xmlns:xlink="http://www.w3.org/1999/xlink" x="0px" y="0px"
	 width="45px" height="45px" viewBox="0 0 45 45" enable-background="new 0 0 45 45" xml:space="preserve">
<g>
	<path fill="#4D1F03" d="M0,7.2C0,3.24,3.24,0,7.2,0h30.6C41.76,0,45,3.24,45,7.2v30.601c0,3.96-3.24,7.2-7.2,7.2H7.2
		c-3.96,0-7.2-3.24-7.2-7.2V7.2z"/>
</g>
<path fill="#FFFFFF" d="M37.499,13.196c-1.104,0.49-2.291,0.821-3.535,0.969c1.271-0.762,2.248-1.967,2.706-3.405
	c-1.188,0.705-2.505,1.218-3.906,1.494c-1.125-1.197-2.725-1.944-4.494-1.944c-3.398,0-6.156,2.756-6.156,6.155
	c0,0.483,0.055,0.952,0.159,1.402c-5.115-0.256-9.649-2.706-12.686-6.431c-0.529,0.911-0.833,1.967-0.833,3.095
	c0,2.135,1.086,4.02,2.737,5.123c-1.008-0.031-1.957-0.31-2.787-0.77v0.078c0,2.982,2.122,5.47,4.937,6.035
	c-0.516,0.14-1.061,0.217-1.622,0.217c-0.396,0-0.783-0.04-1.157-0.112c0.783,2.446,3.056,4.225,5.748,4.275
	c-2.105,1.65-4.759,2.635-7.644,2.635c-0.496,0-0.985-0.029-1.467-0.086c2.724,1.745,5.959,2.764,9.436,2.764
	c11.32,0,17.51-9.377,17.51-17.51c0-0.266-0.006-0.532-0.016-0.797C35.63,15.515,36.672,14.431,37.499,13.196z"/>
</svg>
